# xmcd
#
# Track frame offsets: 
#        150
#        19368
#        46912
#        72294
#        85411
#        125235
#        149410
#        167786
#        183222
#        208501
#        236191
#        259103
#        298002
#
# Disc length: 4258 seconds
#
# Revision: 0
# Processed by: cddbd v1.5.2PL0 Copyright (c) Steve Scherf et al.
# Submitted via: ExactAudioCopyFreeDBPlugin 1.0
#
DISCID=ca10a00d
DTITLE=Tipsy Drivers and Harp Friends - 100% Live
DYEAR=2005
DGENRE=Blues
TTITLE0=Good Time Charlie
TTITLE1=Walking The Dog
TTITLE2=Everything's Gonna Be All Right
TTITLE3=Blowin' Like Hell
TTITLE4=Telephone Blues
TTITLE5=I Wish You Would
TTITLE6=Born In Chicago
TTITLE7=Checking On My Baby
TTITLE8=10 Lat
TTITLE9=Mellow Down Easy
TTITLE10=Myszki
TTITLE11=Country Girl
TTITLE12=Chromatic Jump
EXTD=
EXTT0=
EXTT1=
EXTT2=
EXTT3=
EXTT4=
EXTT5=
EXTT6=
EXTT7=
EXTT8=
EXTT9=
EXTT10=
EXTT11=
EXTT12=
PLAYORDER=
